<svg xmlns="http://www.w3.org/2000/svg" xmlns:xlink="http://www.w3.org/1999/xlink" width="29px" height="16px">
	<path fill-rule="evenodd" opacity="0.4" fill="rgb(0, 169, 157)" d="M3.386,4.318 L0.593,7.094 C-0.178,7.861 -0.178,9.104 0.593,9.871 L3.386,12.647 C4.157,13.414 5.408,13.414 6.179,12.647 L8.972,9.871 C9.743,9.104 9.743,7.861 8.972,7.094 L6.179,4.318 C5.408,3.551 4.157,3.551 3.386,4.318 Z" />
	<path fill-rule="evenodd" opacity="0.702" fill="rgb(0, 169, 157)" d="M11.249,2.930 L7.059,7.094 C6.288,7.861 6.288,9.104 7.059,9.871 L11.249,14.035 C12.020,14.802 13.270,14.802 14.042,14.035 L18.231,9.871 C19.002,9.104 19.002,7.861 18.231,7.094 L14.042,2.930 C13.270,2.164 12.020,2.164 11.249,2.930 Z" />
	<path fill-rule="evenodd" fill="rgb(0, 169, 157)" d="M19.073,1.542 L13.487,7.094 C12.716,7.861 12.716,9.104 13.487,9.871 L19.073,15.424 C19.845,16.190 21.095,16.190 21.866,15.424 L27.453,9.871 C28.224,9.104 28.224,7.861 27.453,7.094 L21.866,1.542 C21.095,0.775 19.845,0.775 19.073,1.542 Z" />
</svg>
