<svg xmlns="http://www.w3.org/2000/svg" xmlns:xlink="http://www.w3.org/1999/xlink" width="120px" height="120px">
	<path fill-rule="evenodd" fill="rgb(235, 235, 235)" d="M60.000,119.999 C26.863,119.999 -0.000,93.136 -0.000,59.999 C-0.000,26.863 26.863,-0.001 60.000,-0.001 C93.137,-0.001 120.000,26.863 120.000,59.999 C120.000,93.136 93.137,119.999 60.000,119.999 ZM60.000,3.000 C28.520,3.000 3.000,28.519 3.000,59.999 C3.000,91.480 28.520,116.999 60.000,116.999 C91.480,116.999 117.000,91.480 117.000,59.999 C117.000,28.519 91.480,3.000 60.000,3.000 Z" />
	<path fill-rule="evenodd" fill="rgb(0, 169, 157)" d="M60.000,119.999 C49.309,119.999 39.280,117.190 30.587,112.290 L32.057,109.675 C40.316,114.331 49.844,116.999 60.000,116.999 C91.480,116.999 117.000,91.480 117.000,59.999 C117.000,28.519 91.480,3.000 60.000,3.000 C28.520,3.000 3.000,28.519 3.000,59.999 L-0.000,59.999 C-0.000,26.863 26.863,-0.001 60.000,-0.001 C93.137,-0.001 120.000,26.863 120.000,59.999 C120.000,93.136 93.137,119.999 60.000,119.999 Z" />
</svg>
